<svg width="273" height="75" viewBox="0 0 273 75" fill="none" xmlns="http://www.w3.org/2000/svg">
<g clip-path="url(#clip0_16_2)">
<path d="M93.5181 19.9225C95.3832 17.6853 97.2395 15.6539 99.4023 13.9092C104.765 9.59897 111.26 11.5998 114.152 14.9599C116.286 17.4401 117.177 20.4107 117.471 23.5935C117.768 26.8158 117.589 30.0512 117.6 33.28C117.626 40.3988 117.6 47.5088 117.628 54.6342C117.628 55.5317 117.466 55.8885 116.461 55.8491C114.224 55.7659 111.981 55.7856 109.741 55.8491C108.92 55.871 108.699 55.6543 108.701 54.8224C108.734 45.0308 108.723 35.2414 108.721 25.4498C108.721 23.3593 108.491 21.2907 107.788 19.3205C106.604 15.9822 104.067 14.8789 100.834 16.315C98.0451 17.5496 96.0443 19.7102 94.2033 22.0503C94.1254 22.1448 94.0699 22.2558 94.0411 22.3748C94.0123 22.4939 94.0109 22.6179 94.0369 22.7376C94.2215 24.154 94.2947 25.5828 94.2558 27.0106C94.2471 36.2425 94.2522 45.4737 94.2711 54.7042C94.2711 55.5798 94.0522 55.8841 93.1416 55.8578C90.8716 55.7922 88.5972 55.8031 86.3271 55.8578C85.5369 55.8754 85.3464 55.6389 85.3486 54.8662C85.3748 45.0768 85.38 35.2867 85.3639 25.4958C85.3639 23.3724 85.145 21.2797 84.427 19.2658C83.2624 15.9822 80.8239 14.914 77.6235 16.2843C74.9113 17.4489 72.9411 19.5088 71.1505 21.7701C70.8615 22.1356 70.9644 22.5428 70.9644 22.9346C70.9644 33.534 70.9695 44.1326 70.9797 54.7305C70.9797 55.6214 70.7783 55.8907 69.8611 55.8622C67.5604 55.7922 65.2641 55.8206 62.9525 55.8491C62.3615 55.8491 62.1447 55.7068 62.1447 55.0742C62.1622 41.6159 62.1622 28.1577 62.1447 14.6994C62.1447 14.1763 62.2979 13.9245 62.8014 13.7691C65.2947 13.0051 67.7881 12.2368 70.2617 11.4049C70.9666 11.1685 70.9666 11.4728 70.9622 11.9916C70.9491 14.104 70.9622 16.2186 70.9622 18.3398C70.9622 18.4843 70.9797 18.6266 70.7893 18.5084C71.8663 17.5868 72.9783 16.698 74.0159 15.7327C75.9708 13.9136 78.035 12.2499 80.7166 11.6873C83.1603 11.1658 85.7096 11.5203 87.9183 12.6889C90.127 13.8575 91.8543 15.7656 92.7979 18.0793C93.0431 18.6244 93.2445 19.2067 93.5181 19.9225Z" fill="#2BACE2"/>
<path d="M220.329 27.6432C220.507 33.9915 221.877 39.9588 226.003 44.998C229.206 48.9076 233.227 51.2302 238.481 50.834C241.524 50.6041 243.954 49.0827 246.088 47.0557C246.784 46.399 247.506 45.705 247.99 44.8929C248.583 43.8925 249.409 43.8575 250.361 43.9056C250.713 43.9232 250.884 43.9604 250.713 44.3785C248.459 49.9715 243.649 55.466 236.412 56.1577C226.888 57.0684 218.243 52.2174 214.719 43.3518C211.068 34.1578 212.348 25.452 218.747 17.7947C222.448 13.3707 227.38 11.1641 233.212 11.2867C236.933 11.3655 240.14 12.8847 242.953 15.2467C244.859 16.8066 246.435 18.7302 247.59 20.9054C247.905 21.5117 247.944 21.8357 247.22 22.1706C245.359 23.0309 243.529 23.9635 241.712 24.9135C241.154 25.2046 240.972 25.0952 240.734 24.5304C239.42 21.4088 237.669 18.585 235.106 16.2974C230.368 12.0616 224.508 13.2962 221.936 19.106C220.719 21.8204 220.264 24.6793 220.329 27.6432Z" fill="#2BACE2"/>
<path d="M253.439 13.1539C253.76 12.5301 254.021 12.0441 254.262 11.5494C254.465 11.1269 254.833 11.1488 255.214 11.1313C256.013 11.0919 257.053 11.4793 257.55 10.9649C258.082 10.4133 257.707 9.36471 257.72 8.53726C257.751 6.82688 257.751 5.11797 257.72 3.41052C257.71 2.88515 257.882 2.63997 258.377 2.48236C260.865 1.7016 263.346 0.898953 265.82 0.0744132C266.428 -0.126979 266.477 0.111626 266.477 0.617295C266.461 3.78703 266.501 6.96552 266.448 10.1265C266.435 10.9649 266.689 11.186 267.501 11.1554C269.117 11.0941 270.736 11.1554 272.354 11.1291C273.053 11.1159 273.114 11.2801 272.845 11.9237C272.444 12.8847 271.888 13.2897 270.807 13.1824C269.668 13.0686 268.506 13.1824 267.357 13.143C266.667 13.1124 266.444 13.3159 266.453 14.0186C266.49 17.1249 266.464 20.2333 266.47 23.3396C266.486 31.7922 266.507 40.2434 266.531 48.6931C266.552 49.7802 266.722 50.8592 267.037 51.9C267.637 54.0037 268.948 55.2865 271.181 55.4419C271.82 55.4857 271.763 55.8315 271.757 56.2409C271.757 56.6087 271.833 56.9917 271.229 56.9874C267.886 56.9611 264.638 56.5211 261.777 54.6429C259.102 52.8917 257.788 50.2867 257.769 47.1542C257.705 36.279 257.731 25.4038 257.723 14.5374C257.723 14.2901 257.703 14.0383 257.723 13.7931C257.769 13.3028 257.561 13.1364 257.077 13.1496C255.919 13.1715 254.75 13.1539 253.439 13.1539Z" fill="#2BACE2"/>
<path d="M54.1569 32.3344C54.1569 39.8209 54.1569 47.3074 54.1744 54.794C54.1744 55.5798 54.0321 55.871 53.1697 55.8469C50.8383 55.779 48.5026 55.8075 46.1647 55.8338C45.5759 55.8338 45.3592 55.6981 45.3592 55.0632C45.3767 40.5265 45.3767 25.9884 45.3592 11.4487C45.3592 10.8577 45.5649 10.641 46.11 10.5271C48.5179 10.0324 50.9128 9.54426 53.2944 8.96635C54.0803 8.7759 54.1701 9.00138 54.1701 9.68874C54.1511 17.2395 54.1467 24.788 54.1569 32.3344Z" fill="#2BACE2"/>
<path d="M159.743 55.7265C160.801 57.0771 162.026 57.8739 163.714 57.736C164.52 57.6613 165.303 57.4237 166.015 57.0377C179.922 49.6716 191.373 39.6348 199.632 26.1437C200.895 24.0795 202.099 21.9714 202.929 19.6882C203.822 17.2278 203.618 16.4353 201.714 14.7913C201.322 14.452 201.458 14.301 201.773 14.1346C203.233 13.3663 204.783 12.9175 206.436 13.1649C207.843 13.3838 208.92 15.2226 208.721 16.8863C208.576 18.0793 208.047 19.1388 207.58 20.218C204.643 27.0456 200.477 33.083 195.541 38.6059C186.725 48.4566 176.255 56.2124 164.675 62.53C163.392 63.2305 161.985 63.3137 160.593 63.0641C158.964 62.773 158.084 61.2735 158.404 59.5201C158.525 58.9435 158.69 58.3771 158.898 57.8258C159.152 57.1428 159.437 56.4926 159.743 55.7265Z" fill="#F8C01D" stroke="#F7F8F8" stroke-width="0.140099" stroke-miterlimit="10"/>
<path d="M54.1569 0.991638C54.1569 2.78009 54.1569 4.48316 54.1569 6.18843C54.1569 6.59559 53.9533 6.70723 53.6119 6.79042C51.0507 7.41867 48.4895 8.04693 45.9502 8.7124C45.4599 8.84155 45.3701 8.72553 45.3767 8.27459C45.3964 6.78385 45.3767 5.2953 45.3767 3.80456C45.3767 3.4762 45.3767 3.20038 45.7948 3.09969C48.5574 2.40576 51.3177 1.70527 54.1569 0.991638Z" fill="#2BACE2"/>
<path d="M196.059 19.4759L193.73 14.973L188.766 5.19458L183.796 14.6206L181.693 18.5193L178.698 24.1189C177.678 25.8126 176.748 27.5589 175.912 29.3507C174.848 31.1019 173.893 32.9254 172.987 34.7707L169.981 40.3659L167.381 45.2147C166.991 45.9152 166.591 46.6113 166.212 47.3162C164.671 50.1838 163.134 53.0544 161.602 55.9279C161.473 56.173 161.118 56.5408 161.545 56.7137C162.188 56.972 162.926 57.2654 163.557 56.6743C167.37 53.0945 171.177 49.5074 174.979 45.913C176.656 44.4332 178.302 42.9206 179.869 41.316C180.377 40.9198 180.935 40.5433 181.213 39.9566C181.896 38.5271 182.682 37.1415 183.195 35.6354C184.199 33.8502 185.097 32.0066 185.883 30.1147C186.244 29.3988 186.579 28.6655 186.977 27.9716C187.288 27.4287 187.373 26.378 187.831 26.4086C188.409 26.448 188.626 27.4046 188.971 27.9803C190.248 30.0993 191.495 32.2358 192.815 34.4709C195.21 31.5835 197.408 28.694 199.096 25.4542C198.22 23.3812 197.095 21.4526 196.059 19.4759Z" fill="#2BACE2"/>
<path d="M212.353 51.1842C211.135 48.5902 209.796 46.0575 208.432 43.5379C207.432 41.4561 206.39 39.394 205.256 37.3801C204.262 35.3968 203.268 33.4135 202.233 31.3427L198.141 36.8153C197.52 37.5771 196.931 38.3652 196.267 39.0854C195.898 39.4903 195.976 39.7771 196.195 40.2127C196.863 41.5502 198.038 42.4127 199.072 43.4087L207.307 51.4097C209.003 53.3032 210.969 54.9275 212.736 56.7509C214.222 58.2833 215.643 59.8747 217.092 61.4421L217.53 61.0896C215.805 57.7871 214.079 54.4853 212.353 51.1842Z" fill="#2BACE2"/>
<path d="M155.011 15.1504C149.711 10.8905 143.774 9.96891 137.465 12.9788C135.953 13.7012 135.933 13.7144 135.933 12.0025C135.933 11.3852 135.832 11.1663 135.138 11.3984C132.695 12.22 130.239 13.0022 127.768 13.745C127.177 13.9245 127.024 14.2266 127.024 14.8111C127.04 34.5504 127.04 54.2883 127.024 74.0247C127.024 74.6814 127.21 74.8741 127.862 74.8631C130.198 74.8281 132.533 74.804 134.867 74.8631C135.771 74.8894 135.944 74.5698 135.94 73.7489C135.911 67.2212 135.924 60.6934 135.924 54.1657V53.0887C136.406 53.1763 136.609 53.428 136.855 53.6053C138.72 54.9647 140.756 56.0023 143.072 56.1731C149.446 56.6459 154.726 54.4021 158.776 49.4549C161.794 45.7685 163.373 41.4671 163.837 36.7584C164.677 28.0198 161.882 20.669 155.011 15.1504ZM155.38 42.4872C155.203 45.2979 154.562 48.0101 153.06 50.4509C150.786 54.1482 146.467 55.1595 142.772 52.8588C140.572 51.4885 139.07 49.4943 137.77 47.3096C136.469 45.125 135.725 42.8155 135.863 40.1712C136.042 36.7015 135.907 33.2144 135.907 29.736C135.907 25.4805 135.92 21.225 135.894 16.9695C135.872 16.6956 135.924 16.4209 136.044 16.1741C136.165 15.9272 136.349 15.7173 136.579 15.5663C138.798 13.9486 141.154 13.953 143.536 15.0584C146.662 16.5098 148.732 19.0753 150.354 21.9868C153.903 28.3525 155.845 35.1429 155.38 42.4872Z" fill="#2BACE2"/>
<path d="M37.0058 26.7676C37.0057 25.1222 36.805 23.4829 36.4082 21.8861C34.6569 14.7476 29.2369 10.5271 21.8751 10.503C17.9217 10.4921 14.1806 11.4268 10.5512 12.8957C8.09609 13.8785 5.75236 15.1194 3.55937 16.5973C3.32515 16.7549 2.82605 16.8534 3.21132 17.3416C4.91002 19.5109 6.60214 21.6847 8.3687 23.9481C9.58143 21.654 10.8817 19.5416 12.4863 17.6393C14.2375 15.5553 16.1748 13.6662 18.8345 12.7468C21.3344 11.8712 23.7183 12.4206 25.058 14.1106C27.1397 16.7374 26.9712 19.5394 24.5676 22.0721C22.3326 24.4275 19.5547 26.0365 16.8009 27.6739C12.7687 30.0709 8.59637 32.2556 5.01071 35.3355C3.10187 36.9729 1.46227 38.8249 0.58009 41.2328C-1.15363 45.9633 1.00039 53.4915 7.31359 56.3963C12.1601 58.6182 16.8841 57.9768 21.4548 55.5207C23.9366 54.1551 26.1214 52.3089 27.8819 50.0897C28.219 50.2385 28.2846 50.5275 28.416 50.7727C29.2916 52.3444 30.1847 53.9118 31.0143 55.5098C31.2989 56.0592 31.6339 56.254 32.2468 56.23C33.4902 56.1796 34.7401 56.1621 35.9813 56.23C36.7978 56.2759 37.0211 56.0483 37.0189 55.212C36.9839 45.7349 36.9795 36.2535 37.0058 26.7676ZM28.0176 46.7317C28.0185 46.9465 27.9753 47.1591 27.8906 47.3564C27.8058 47.5538 27.6814 47.7316 27.525 47.8788C25.1171 50.5209 22.1597 52.1277 18.5499 52.2218C12.3549 52.3816 8.34681 48.0889 9.22243 41.7144C9.78282 37.645 12.3462 34.8496 15.3123 32.33C18.2041 29.8739 21.4417 27.8731 24.2305 25.2747C25.456 24.0978 26.5719 22.8119 27.5644 21.4329C27.6476 22.2866 27.7636 23.1382 27.8052 23.9919C28.1774 31.5835 27.9387 39.162 28.0176 46.7404V46.7317Z" fill="#2BACE2"/>
</g>
<defs>
<clipPath id="clip0_16_2">
<rect width="273" height="74.8719" fill="white"/>
</clipPath>
</defs>
</svg>
